<svg width="22" height="19" viewBox="0 0 22 19" fill="none" xmlns="http://www.w3.org/2000/svg">
<path d="M17.7043 15.2963C18.3233 15.9153 18.3233 16.9183 17.7043 17.5363C17.0853 18.1553 16.0823 18.1553 15.4642 17.5363C14.8452 16.9173 14.8452 15.9143 15.4642 15.2963C16.0833 14.6773 17.0863 14.6773 17.7043 15.2963" stroke="white" stroke-width="1.5" stroke-linecap="round" stroke-linejoin="round"/>
<path d="M6.70388 15.296C7.32288 15.915 7.32288 16.918 6.70388 17.536C6.08488 18.155 5.08188 18.155 4.46388 17.536C3.84588 16.917 3.84488 15.914 4.46388 15.296C5.08288 14.678 6.08488 14.677 6.70388 15.296" stroke="white" stroke-width="1.5" stroke-linecap="round" stroke-linejoin="round"/>
<path d="M9 1H13C13.552 1 14 1.448 14 2V12H1" stroke="white" stroke-width="1.5" stroke-linecap="round" stroke-linejoin="round"/>
<path d="M4 16.416H2C1.448 16.416 1 15.968 1 15.416V10" stroke="white" stroke-width="1.5" stroke-linecap="round" stroke-linejoin="round"/>
<path d="M14 4H18.323C18.732 4 19.1 4.249 19.251 4.629L20.857 8.643C20.951 8.879 21 9.131 21 9.385V15.333C21 15.885 20.552 16.333 20 16.333H18.169" stroke="white" stroke-width="1.5" stroke-linecap="round" stroke-linejoin="round"/>
<path d="M14.9999 16.42H7.16992" stroke="white" stroke-width="1.5" stroke-linecap="round" stroke-linejoin="round"/>
<path d="M21 11H17V7H20.2" stroke="white" stroke-width="1.5" stroke-linecap="round" stroke-linejoin="round"/>
<path d="M1 1H6" stroke="white" stroke-width="1.5" stroke-linecap="round" stroke-linejoin="round"/>
<path d="M1 4H4" stroke="white" stroke-width="1.5" stroke-linecap="round" stroke-linejoin="round"/>
<path d="M2 7H1" stroke="white" stroke-width="1.5" stroke-linecap="round" stroke-linejoin="round"/>
</svg>
